<mxfile host="app.diagrams.net" modified="2023-01-18T03:15:05.246Z" agent="5.0 (Macintosh)" version="20.8.5" etag="Wo1vBqfpTfrk-icoykze" type="github">
  <diagram id="pI_pqOVNAAnI3ripTORV" name="Page-1">
    <mxGraphModel dx="794" dy="485" grid="1" gridSize="10" guides="1" tooltips="1" connect="1" arrows="1" fold="1" page="1" pageScale="1" pageWidth="850" pageHeight="1100" math="0" shadow="0">
      <root>
        <mxCell id="0" />
        <mxCell id="1" parent="0" />
      </root>
    </mxGraphModel>
  </diagram>
</mxfile>
